<svg xmlns="http://www.w3.org/2000/svg" width="60" height="24" viewBox="0 0 60 24" fill="none">
  <mask id="path-1-inside-1_914_2952" fill="white">
    <path fill-rule="evenodd" clip-rule="evenodd" d="M10 0C4.47715 0 0 4.47715 0 10C0 15.5228 4.47715 20 10 20H26.2584L29.7914 23.6916C30.1857 24.1036 30.8442 24.1029 31.2377 23.6901L34.7548 20H50C55.5228 20 60 15.5228 60 10C60 4.47715 55.5228 0 50 0H10Z"/>
  </mask>
  <path fill-rule="evenodd" clip-rule="evenodd" d="M10 0C4.47715 0 0 4.47715 0 10C0 15.5228 4.47715 20 10 20H26.2584L29.7914 23.6916C30.1857 24.1036 30.8442 24.1029 31.2377 23.6901L34.7548 20H50C55.5228 20 60 15.5228 60 10C60 4.47715 55.5228 0 50 0H10Z" fill="white"/>
  <path fill-rule="evenodd" clip-rule="evenodd" d="M10 0C4.47715 0 0 4.47715 0 10C0 15.5228 4.47715 20 10 20H26.2584L29.7914 23.6916C30.1857 24.1036 30.8442 24.1029 31.2377 23.6901L34.7548 20H50C55.5228 20 60 15.5228 60 10C60 4.47715 55.5228 0 50 0H10Z" fill="#FF0038" fill-opacity="0.02"/>
  <path d="M26.2584 20L26.9809 19.3086L26.6856 19H26.2584V20ZM29.7914 23.6916L30.5138 23.0001L30.5138 23.0001L29.7914 23.6916ZM31.2377 23.6901L31.9615 24.38H31.9616L31.2377 23.6901ZM34.7548 20V19H34.3265L34.031 19.3101L34.7548 20ZM1 10C1 5.02944 5.02944 1 10 1V-1C3.92487 -1 -1 3.92487 -1 10H1ZM10 19C5.02944 19 1 14.9706 1 10H-1C-1 16.0751 3.92487 21 10 21V19ZM26.2584 19H10V21H26.2584V19ZM25.536 20.6914L29.0689 24.383L30.5138 23.0001L26.9809 19.3086L25.536 20.6914ZM29.0689 24.383C29.8576 25.207 31.1746 25.2057 31.9615 24.38L30.5138 23.0001H30.5138L29.0689 24.383ZM31.9616 24.38L35.4787 20.6899L34.031 19.3101L30.5138 23.0001L31.9616 24.38ZM50 19H34.7548V21H50V19ZM59 10C59 14.9706 54.9706 19 50 19V21C56.0751 21 61 16.0751 61 10H59ZM50 1C54.9706 1 59 5.02944 59 10H61C61 3.92487 56.0751 -1 50 -1V1ZM10 1H50V-1H10V1Z" fill="#FF0038" fill-opacity="0.2" mask="url(#path-1-inside-1_914_2952)"/>
</svg>